<mxfile host="Electron" agent="Mozilla/5.0 (Windows NT 10.0; Win64; x64) AppleWebKit/537.36 (KHTML, like Gecko) draw.io/26.1.1 Chrome/132.0.6834.210 Electron/34.3.3 Safari/537.36" version="26.1.1">
  <diagram id="C5RBs43oDa-KdzZeNtuy" name="Page-1">
    <mxGraphModel dx="1526" dy="2125" grid="1" gridSize="10" guides="1" tooltips="1" connect="1" arrows="1" fold="1" page="1" pageScale="1" pageWidth="827" pageHeight="1169" math="0" shadow="0">
      <root>
        <mxCell id="WIyWlLk6GJQsqaUBKTNV-0" />
        <mxCell id="WIyWlLk6GJQsqaUBKTNV-1" parent="WIyWlLk6GJQsqaUBKTNV-0" />
        <mxCell id="9Zn45o8rkPmf2H5YwDRv-107" value="&lt;font style=&quot;font-size: 23px; color: rgb(255, 255, 0);&quot;&gt;异常处理系统&lt;/font&gt;" style="rounded=0;whiteSpace=wrap;html=1;fillColor=#f8cecc;strokeColor=#b85450;" vertex="1" parent="WIyWlLk6GJQsqaUBKTNV-1">
          <mxGeometry x="1390" y="1130" width="950" height="450" as="geometry" />
        </mxCell>
        <mxCell id="9Zn45o8rkPmf2H5YwDRv-75" value="&lt;font style=&quot;font-size: 26px;&quot;&gt;模型评估&lt;/font&gt;" style="rounded=0;whiteSpace=wrap;html=1;fillColor=#fff2cc;strokeColor=#d6b656;dashed=1;dashPattern=1 1;glass=0;" vertex="1" parent="WIyWlLk6GJQsqaUBKTNV-1">
          <mxGeometry x="440" y="1230" width="890" height="550" as="geometry" />
        </mxCell>
        <mxCell id="9Zn45o8rkPmf2H5YwDRv-45" value="&lt;font style=&quot;font-size: 29px; color: rgb(241, 156, 153);&quot;&gt;数据预处理阶段&lt;/font&gt;" style="rounded=0;whiteSpace=wrap;html=1;fillColor=#d5e8d4;strokeColor=#82b366;" vertex="1" parent="WIyWlLk6GJQsqaUBKTNV-1">
          <mxGeometry x="140" y="370" width="490" height="660" as="geometry" />
        </mxCell>
        <mxCell id="9Zn45o8rkPmf2H5YwDRv-7" value="" style="edgeStyle=orthogonalEdgeStyle;rounded=0;orthogonalLoop=1;jettySize=auto;html=1;" edge="1" parent="WIyWlLk6GJQsqaUBKTNV-1" source="9Zn45o8rkPmf2H5YwDRv-0" target="9Zn45o8rkPmf2H5YwDRv-6">
          <mxGeometry relative="1" as="geometry" />
        </mxCell>
        <mxCell id="9Zn45o8rkPmf2H5YwDRv-0" value="开始" style="rounded=0;whiteSpace=wrap;html=1;fillColor=#b0e3e6;strokeColor=#0e8088;shadow=0;labelBackgroundColor=none;labelBorderColor=none;textShadow=0;" vertex="1" parent="WIyWlLk6GJQsqaUBKTNV-1">
          <mxGeometry x="30" y="80" width="100" height="60" as="geometry" />
        </mxCell>
        <mxCell id="9Zn45o8rkPmf2H5YwDRv-11" value="" style="edgeStyle=orthogonalEdgeStyle;rounded=0;orthogonalLoop=1;jettySize=auto;html=1;" edge="1" parent="WIyWlLk6GJQsqaUBKTNV-1" source="9Zn45o8rkPmf2H5YwDRv-6">
          <mxGeometry relative="1" as="geometry">
            <mxPoint x="470" y="110" as="targetPoint" />
          </mxGeometry>
        </mxCell>
        <mxCell id="9Zn45o8rkPmf2H5YwDRv-6" value="数据加载&lt;span style=&quot;background-color: transparent; color: light-dark(rgb(0, 0, 0), rgb(255, 255, 255));&quot;&gt;源文件： Traffic.csv+TrafficTwoMonth.csv&lt;/span&gt;" style="rounded=0;whiteSpace=wrap;html=1;fillColor=#b1ddf0;strokeColor=#10739e;shadow=0;labelBackgroundColor=none;labelBorderColor=none;textShadow=0;" vertex="1" parent="WIyWlLk6GJQsqaUBKTNV-1">
          <mxGeometry x="200" y="80" width="200" height="60" as="geometry" />
        </mxCell>
        <mxCell id="9Zn45o8rkPmf2H5YwDRv-13" value="" style="edgeStyle=orthogonalEdgeStyle;rounded=0;orthogonalLoop=1;jettySize=auto;html=1;" edge="1" parent="WIyWlLk6GJQsqaUBKTNV-1">
          <mxGeometry relative="1" as="geometry">
            <mxPoint x="580" y="109.58" as="sourcePoint" />
            <mxPoint x="660" y="109.58" as="targetPoint" />
            <Array as="points">
              <mxPoint x="630" y="109.58" />
              <mxPoint x="630" y="109.58" />
            </Array>
          </mxGeometry>
        </mxCell>
        <mxCell id="9Zn45o8rkPmf2H5YwDRv-10" value="数据合并标识字段：Source列" style="whiteSpace=wrap;html=1;fillColor=#d0cee2;strokeColor=#56517e;rounded=0;shadow=0;labelBackgroundColor=none;labelBorderColor=none;" vertex="1" parent="WIyWlLk6GJQsqaUBKTNV-1">
          <mxGeometry x="470" y="80" width="120" height="60" as="geometry" />
        </mxCell>
        <mxCell id="9Zn45o8rkPmf2H5YwDRv-15" style="edgeStyle=orthogonalEdgeStyle;rounded=0;orthogonalLoop=1;jettySize=auto;html=1;exitX=0.5;exitY=1;exitDx=0;exitDy=0;" edge="1" parent="WIyWlLk6GJQsqaUBKTNV-1" source="9Zn45o8rkPmf2H5YwDRv-12">
          <mxGeometry relative="1" as="geometry">
            <mxPoint x="470" y="240" as="targetPoint" />
          </mxGeometry>
        </mxCell>
        <mxCell id="9Zn45o8rkPmf2H5YwDRv-12" value="探案性分析 16维度：时间分布/车辆关联/流量方差" style="whiteSpace=wrap;html=1;fillColor=#bac8d3;strokeColor=#23445d;rounded=0;shadow=0;labelBackgroundColor=none;labelBorderColor=none;" vertex="1" parent="WIyWlLk6GJQsqaUBKTNV-1">
          <mxGeometry x="660" y="80" width="120" height="60" as="geometry" />
        </mxCell>
        <mxCell id="9Zn45o8rkPmf2H5YwDRv-18" style="edgeStyle=orthogonalEdgeStyle;rounded=0;orthogonalLoop=1;jettySize=auto;html=1;exitX=0;exitY=0.5;exitDx=0;exitDy=0;" edge="1" parent="WIyWlLk6GJQsqaUBKTNV-1" source="9Zn45o8rkPmf2H5YwDRv-16" target="9Zn45o8rkPmf2H5YwDRv-19">
          <mxGeometry relative="1" as="geometry">
            <mxPoint x="310" y="380" as="targetPoint" />
          </mxGeometry>
        </mxCell>
        <mxCell id="9Zn45o8rkPmf2H5YwDRv-108" style="edgeStyle=orthogonalEdgeStyle;rounded=0;orthogonalLoop=1;jettySize=auto;html=1;" edge="1" parent="WIyWlLk6GJQsqaUBKTNV-1" source="9Zn45o8rkPmf2H5YwDRv-16">
          <mxGeometry relative="1" as="geometry">
            <mxPoint x="980" y="270" as="targetPoint" />
          </mxGeometry>
        </mxCell>
        <mxCell id="9Zn45o8rkPmf2H5YwDRv-16" value="可视化分析工具：Plotty+Seaborn组合" style="rounded=0;whiteSpace=wrap;html=1;fillColor=#fad9d5;strokeColor=#ae4132;" vertex="1" parent="WIyWlLk6GJQsqaUBKTNV-1">
          <mxGeometry x="414" y="240" width="120" height="60" as="geometry" />
        </mxCell>
        <mxCell id="9Zn45o8rkPmf2H5YwDRv-21" style="edgeStyle=orthogonalEdgeStyle;rounded=0;orthogonalLoop=1;jettySize=auto;html=1;" edge="1" parent="WIyWlLk6GJQsqaUBKTNV-1" source="9Zn45o8rkPmf2H5YwDRv-19" target="9Zn45o8rkPmf2H5YwDRv-42">
          <mxGeometry relative="1" as="geometry">
            <mxPoint x="180" y="1060" as="targetPoint" />
            <Array as="points">
              <mxPoint x="340" y="1140" />
              <mxPoint x="385" y="1140" />
            </Array>
          </mxGeometry>
        </mxCell>
        <mxCell id="9Zn45o8rkPmf2H5YwDRv-47" value="否" style="edgeLabel;html=1;align=center;verticalAlign=middle;resizable=0;points=[];" vertex="1" connectable="0" parent="9Zn45o8rkPmf2H5YwDRv-21">
          <mxGeometry x="-0.3851" y="1" relative="1" as="geometry">
            <mxPoint as="offset" />
          </mxGeometry>
        </mxCell>
        <mxCell id="9Zn45o8rkPmf2H5YwDRv-19" value="数据预处理？" style="rhombus;whiteSpace=wrap;html=1;fillColor=#d0cee2;strokeColor=#56517e;" vertex="1" parent="WIyWlLk6GJQsqaUBKTNV-1">
          <mxGeometry x="260" y="340" width="160" height="170" as="geometry" />
        </mxCell>
        <mxCell id="9Zn45o8rkPmf2H5YwDRv-24" value="" style="edgeStyle=orthogonalEdgeStyle;rounded=0;orthogonalLoop=1;jettySize=auto;html=1;" edge="1" parent="WIyWlLk6GJQsqaUBKTNV-1" source="9Zn45o8rkPmf2H5YwDRv-19" target="9Zn45o8rkPmf2H5YwDRv-23">
          <mxGeometry relative="1" as="geometry">
            <mxPoint x="500" y="570" as="targetPoint" />
            <mxPoint x="420" y="425" as="sourcePoint" />
          </mxGeometry>
        </mxCell>
        <mxCell id="9Zn45o8rkPmf2H5YwDRv-25" value="是" style="edgeLabel;html=1;align=center;verticalAlign=middle;resizable=0;points=[];" vertex="1" connectable="0" parent="9Zn45o8rkPmf2H5YwDRv-24">
          <mxGeometry x="-0.0835" relative="1" as="geometry">
            <mxPoint as="offset" />
          </mxGeometry>
        </mxCell>
        <mxCell id="9Zn45o8rkPmf2H5YwDRv-27" value="" style="edgeStyle=orthogonalEdgeStyle;rounded=0;orthogonalLoop=1;jettySize=auto;html=1;" edge="1" parent="WIyWlLk6GJQsqaUBKTNV-1" source="9Zn45o8rkPmf2H5YwDRv-23" target="9Zn45o8rkPmf2H5YwDRv-26">
          <mxGeometry relative="1" as="geometry" />
        </mxCell>
        <mxCell id="9Zn45o8rkPmf2H5YwDRv-23" value="&lt;p class=&quot;MsoNormal&quot;&gt;&lt;span style=&quot;font-family:宋体;mso-ascii-font-family:Calibri;&lt;br/&gt;mso-hansi-font-family:Calibri&quot;&gt;异常值处理&lt;/span&gt;&lt;/p&gt;&lt;p class=&quot;MsoNormal&quot;&gt;&lt;span style=&quot;background-color: transparent; color: light-dark(rgb(0, 0, 0), rgb(255, 255, 255)); font-family: 宋体;&quot;&gt;方法&lt;/span&gt;&lt;span style=&quot;background-color: transparent; color: light-dark(rgb(0, 0, 0), rgb(255, 255, 255));&quot; lang=&quot;EN-US&quot;&gt;: IQR+3&lt;/span&gt;&lt;span style=&quot;background-color: transparent; color: light-dark(rgb(0, 0, 0), rgb(255, 255, 255)); font-family: 宋体;&quot;&gt;σ组合去噪&lt;/span&gt;&lt;/p&gt;" style="rounded=1;whiteSpace=wrap;html=1;fillColor=#b1ddf0;strokeColor=#10739e;" vertex="1" parent="WIyWlLk6GJQsqaUBKTNV-1">
          <mxGeometry x="450" y="530" width="120" height="60" as="geometry" />
        </mxCell>
        <mxCell id="9Zn45o8rkPmf2H5YwDRv-29" value="" style="edgeStyle=orthogonalEdgeStyle;rounded=0;orthogonalLoop=1;jettySize=auto;html=1;" edge="1" parent="WIyWlLk6GJQsqaUBKTNV-1" source="9Zn45o8rkPmf2H5YwDRv-26">
          <mxGeometry relative="1" as="geometry">
            <mxPoint x="510" y="780" as="targetPoint" />
            <Array as="points">
              <mxPoint x="510" y="770" />
              <mxPoint x="510" y="770" />
            </Array>
          </mxGeometry>
        </mxCell>
        <mxCell id="9Zn45o8rkPmf2H5YwDRv-34" value="" style="edgeStyle=orthogonalEdgeStyle;rounded=0;orthogonalLoop=1;jettySize=auto;html=1;" edge="1" parent="WIyWlLk6GJQsqaUBKTNV-1" source="9Zn45o8rkPmf2H5YwDRv-26" target="9Zn45o8rkPmf2H5YwDRv-28">
          <mxGeometry relative="1" as="geometry" />
        </mxCell>
        <mxCell id="9Zn45o8rkPmf2H5YwDRv-26" value="&lt;p class=&quot;MsoNormal&quot;&gt;&lt;font face=&quot;宋体&quot;&gt;缺失值处理&lt;/font&gt;&lt;/p&gt;&lt;p class=&quot;MsoNormal&quot;&gt;&lt;font face=&quot;宋体&quot;&gt;策路：KNN插补&lt;/font&gt;&lt;/p&gt;" style="rounded=1;whiteSpace=wrap;html=1;fillColor=#b0e3e6;strokeColor=#0e8088;" vertex="1" parent="WIyWlLk6GJQsqaUBKTNV-1">
          <mxGeometry x="450" y="630" width="120" height="60" as="geometry" />
        </mxCell>
        <mxCell id="9Zn45o8rkPmf2H5YwDRv-31" value="" style="edgeStyle=orthogonalEdgeStyle;rounded=0;orthogonalLoop=1;jettySize=auto;html=1;" edge="1" parent="WIyWlLk6GJQsqaUBKTNV-1" source="9Zn45o8rkPmf2H5YwDRv-28">
          <mxGeometry relative="1" as="geometry">
            <mxPoint x="510" y="830" as="targetPoint" />
          </mxGeometry>
        </mxCell>
        <mxCell id="9Zn45o8rkPmf2H5YwDRv-28" value="&lt;p class=&quot;MsoNormal&quot;&gt;&lt;span style=&quot;font-family:宋体;mso-ascii-font-family:Calibri;&lt;br/&gt;mso-hansi-font-family:Calibri&quot;&gt;异常值处理&lt;/span&gt;&lt;/p&gt;&lt;p class=&quot;MsoNormal&quot;&gt;&lt;span style=&quot;background-color: transparent; color: light-dark(rgb(0, 0, 0), rgb(255, 255, 255)); font-family: 宋体;&quot;&gt;方法&lt;/span&gt;&lt;span style=&quot;background-color: transparent; color: light-dark(rgb(0, 0, 0), rgb(255, 255, 255));&quot; lang=&quot;EN-US&quot;&gt;: IQR+3&lt;/span&gt;&lt;span style=&quot;background-color: transparent; color: light-dark(rgb(0, 0, 0), rgb(255, 255, 255)); font-family: 宋体;&quot;&gt;σ组合去噪&lt;/span&gt;&lt;/p&gt;" style="rounded=1;whiteSpace=wrap;html=1;fillColor=#fad7ac;strokeColor=#b46504;" vertex="1" parent="WIyWlLk6GJQsqaUBKTNV-1">
          <mxGeometry x="450" y="730" width="120" height="60" as="geometry" />
        </mxCell>
        <mxCell id="9Zn45o8rkPmf2H5YwDRv-36" value="" style="edgeStyle=orthogonalEdgeStyle;rounded=0;orthogonalLoop=1;jettySize=auto;html=1;" edge="1" parent="WIyWlLk6GJQsqaUBKTNV-1" source="9Zn45o8rkPmf2H5YwDRv-30" target="9Zn45o8rkPmf2H5YwDRv-35">
          <mxGeometry relative="1" as="geometry" />
        </mxCell>
        <mxCell id="9Zn45o8rkPmf2H5YwDRv-30" value="&lt;p class=&quot;MsoNormal&quot;&gt;&lt;font face=&quot;宋体&quot;&gt;正态性检验工具：Shapiro-Wlk&lt;/font&gt;&lt;/p&gt;" style="rounded=1;whiteSpace=wrap;html=1;fillColor=#bac8d3;strokeColor=#23445d;" vertex="1" parent="WIyWlLk6GJQsqaUBKTNV-1">
          <mxGeometry x="450" y="830" width="120" height="60" as="geometry" />
        </mxCell>
        <mxCell id="9Zn45o8rkPmf2H5YwDRv-35" value="&lt;p class=&quot;MsoNormal&quot;&gt;&lt;font face=&quot;宋体&quot;&gt;归一化处理方法：QuantileTransformer&lt;/font&gt;&lt;/p&gt;" style="rounded=1;whiteSpace=wrap;html=1;fillColor=#b1ddf0;strokeColor=#10739e;" vertex="1" parent="WIyWlLk6GJQsqaUBKTNV-1">
          <mxGeometry x="450" y="930" width="120" height="60" as="geometry" />
        </mxCell>
        <mxCell id="9Zn45o8rkPmf2H5YwDRv-39" value="" style="endArrow=classic;html=1;rounded=0;entryX=0.718;entryY=0.021;entryDx=0;entryDy=0;entryPerimeter=0;curved=1;" edge="1" parent="WIyWlLk6GJQsqaUBKTNV-1" target="9Zn45o8rkPmf2H5YwDRv-42">
          <mxGeometry width="50" height="50" relative="1" as="geometry">
            <mxPoint x="509.58" y="990" as="sourcePoint" />
            <mxPoint x="420" y="1050" as="targetPoint" />
            <Array as="points">
              <mxPoint x="490" y="1040" />
            </Array>
          </mxGeometry>
        </mxCell>
        <mxCell id="9Zn45o8rkPmf2H5YwDRv-44" value="" style="edgeStyle=orthogonalEdgeStyle;rounded=0;orthogonalLoop=1;jettySize=auto;html=1;" edge="1" parent="WIyWlLk6GJQsqaUBKTNV-1" source="9Zn45o8rkPmf2H5YwDRv-42" target="9Zn45o8rkPmf2H5YwDRv-43">
          <mxGeometry relative="1" as="geometry" />
        </mxCell>
        <mxCell id="9Zn45o8rkPmf2H5YwDRv-42" value="特征工程&lt;div&gt;生成：时段流量衍生特征&lt;/div&gt;" style="rounded=0;whiteSpace=wrap;html=1;fillColor=#e1d5e7;strokeColor=#9673a6;" vertex="1" parent="WIyWlLk6GJQsqaUBKTNV-1">
          <mxGeometry x="254.5" y="1069" width="261" height="100" as="geometry" />
        </mxCell>
        <mxCell id="9Zn45o8rkPmf2H5YwDRv-49" value="" style="edgeStyle=orthogonalEdgeStyle;rounded=0;orthogonalLoop=1;jettySize=auto;html=1;" edge="1" parent="WIyWlLk6GJQsqaUBKTNV-1" source="9Zn45o8rkPmf2H5YwDRv-43" target="9Zn45o8rkPmf2H5YwDRv-48">
          <mxGeometry relative="1" as="geometry" />
        </mxCell>
        <mxCell id="9Zn45o8rkPmf2H5YwDRv-43" value="特征工程&lt;div&gt;生成：时段流量衍生特征&lt;/div&gt;" style="rounded=0;whiteSpace=wrap;html=1;fillColor=#fff2cc;strokeColor=#d6b656;" vertex="1" parent="WIyWlLk6GJQsqaUBKTNV-1">
          <mxGeometry x="250" y="1250" width="170" height="60" as="geometry" />
        </mxCell>
        <mxCell id="9Zn45o8rkPmf2H5YwDRv-51" value="" style="edgeStyle=orthogonalEdgeStyle;rounded=0;orthogonalLoop=1;jettySize=auto;html=1;" edge="1" parent="WIyWlLk6GJQsqaUBKTNV-1" source="9Zn45o8rkPmf2H5YwDRv-48" target="9Zn45o8rkPmf2H5YwDRv-50">
          <mxGeometry relative="1" as="geometry" />
        </mxCell>
        <mxCell id="9Zn45o8rkPmf2H5YwDRv-48" value="数据分割&lt;div&gt;比例：训练集70%验证集15%/测试集15%&lt;/div&gt;" style="rounded=0;whiteSpace=wrap;html=1;fillColor=#f8cecc;strokeColor=#b85450;" vertex="1" parent="WIyWlLk6GJQsqaUBKTNV-1">
          <mxGeometry x="250" y="1390" width="170" height="60" as="geometry" />
        </mxCell>
        <mxCell id="9Zn45o8rkPmf2H5YwDRv-61" style="edgeStyle=orthogonalEdgeStyle;rounded=0;orthogonalLoop=1;jettySize=auto;html=1;exitX=0.5;exitY=0;exitDx=0;exitDy=0;entryX=0;entryY=0.25;entryDx=0;entryDy=0;curved=1;" edge="1" parent="WIyWlLk6GJQsqaUBKTNV-1" source="9Zn45o8rkPmf2H5YwDRv-50" target="9Zn45o8rkPmf2H5YwDRv-56">
          <mxGeometry relative="1" as="geometry" />
        </mxCell>
        <mxCell id="9Zn45o8rkPmf2H5YwDRv-62" style="edgeStyle=orthogonalEdgeStyle;rounded=0;orthogonalLoop=1;jettySize=auto;html=1;curved=1;" edge="1" parent="WIyWlLk6GJQsqaUBKTNV-1" source="9Zn45o8rkPmf2H5YwDRv-50" target="9Zn45o8rkPmf2H5YwDRv-59">
          <mxGeometry relative="1" as="geometry" />
        </mxCell>
        <mxCell id="9Zn45o8rkPmf2H5YwDRv-63" style="edgeStyle=orthogonalEdgeStyle;rounded=0;orthogonalLoop=1;jettySize=auto;html=1;curved=1;entryX=0;entryY=1;entryDx=0;entryDy=0;" edge="1" parent="WIyWlLk6GJQsqaUBKTNV-1" source="9Zn45o8rkPmf2H5YwDRv-50" target="9Zn45o8rkPmf2H5YwDRv-58">
          <mxGeometry relative="1" as="geometry">
            <mxPoint x="600" y="1600" as="targetPoint" />
          </mxGeometry>
        </mxCell>
        <mxCell id="9Zn45o8rkPmf2H5YwDRv-64" style="edgeStyle=orthogonalEdgeStyle;rounded=0;orthogonalLoop=1;jettySize=auto;html=1;entryX=0;entryY=1;entryDx=0;entryDy=0;curved=1;" edge="1" parent="WIyWlLk6GJQsqaUBKTNV-1" source="9Zn45o8rkPmf2H5YwDRv-50" target="9Zn45o8rkPmf2H5YwDRv-60">
          <mxGeometry relative="1" as="geometry">
            <Array as="points">
              <mxPoint x="600" y="1720" />
              <mxPoint x="730" y="1720" />
            </Array>
          </mxGeometry>
        </mxCell>
        <mxCell id="9Zn45o8rkPmf2H5YwDRv-50" value="模型训练管道：&lt;div&gt;Scikit--learn Pipeline&lt;/div&gt;" style="rounded=0;whiteSpace=wrap;html=1;fillColor=#dae8fc;strokeColor=#6c8ebf;" vertex="1" parent="WIyWlLk6GJQsqaUBKTNV-1">
          <mxGeometry x="500" y="1390" width="170" height="60" as="geometry" />
        </mxCell>
        <mxCell id="9Zn45o8rkPmf2H5YwDRv-65" style="edgeStyle=orthogonalEdgeStyle;rounded=0;orthogonalLoop=1;jettySize=auto;html=1;" edge="1" parent="WIyWlLk6GJQsqaUBKTNV-1" source="9Zn45o8rkPmf2H5YwDRv-56" target="9Zn45o8rkPmf2H5YwDRv-57">
          <mxGeometry relative="1" as="geometry" />
        </mxCell>
        <mxCell id="9Zn45o8rkPmf2H5YwDRv-56" value="随机森林参数：n_estimators=200" style="rounded=0;whiteSpace=wrap;html=1;fillColor=#d5e8d4;strokeColor=#82b366;" vertex="1" parent="WIyWlLk6GJQsqaUBKTNV-1">
          <mxGeometry x="730" y="1310" width="120" height="60" as="geometry" />
        </mxCell>
        <mxCell id="9Zn45o8rkPmf2H5YwDRv-71" style="edgeStyle=orthogonalEdgeStyle;rounded=0;orthogonalLoop=1;jettySize=auto;html=1;curved=1;entryX=0.5;entryY=0;entryDx=0;entryDy=0;" edge="1" parent="WIyWlLk6GJQsqaUBKTNV-1" source="9Zn45o8rkPmf2H5YwDRv-57" target="9Zn45o8rkPmf2H5YwDRv-74">
          <mxGeometry relative="1" as="geometry">
            <mxPoint x="1160" y="1450" as="targetPoint" />
          </mxGeometry>
        </mxCell>
        <mxCell id="9Zn45o8rkPmf2H5YwDRv-57" value="测试集评估" style="rounded=0;whiteSpace=wrap;html=1;fillColor=#f0a30a;fontColor=#000000;strokeColor=#BD7000;" vertex="1" parent="WIyWlLk6GJQsqaUBKTNV-1">
          <mxGeometry x="920" y="1310" width="120" height="60" as="geometry" />
        </mxCell>
        <mxCell id="9Zn45o8rkPmf2H5YwDRv-69" style="edgeStyle=orthogonalEdgeStyle;rounded=0;orthogonalLoop=1;jettySize=auto;html=1;" edge="1" parent="WIyWlLk6GJQsqaUBKTNV-1" source="9Zn45o8rkPmf2H5YwDRv-58" target="9Zn45o8rkPmf2H5YwDRv-66">
          <mxGeometry relative="1" as="geometry" />
        </mxCell>
        <mxCell id="9Zn45o8rkPmf2H5YwDRv-58" value="SVM核函数：RBF" style="rounded=0;whiteSpace=wrap;html=1;fillColor=#e1d5e7;strokeColor=#9673a6;" vertex="1" parent="WIyWlLk6GJQsqaUBKTNV-1">
          <mxGeometry x="730" y="1530" width="120" height="60" as="geometry" />
        </mxCell>
        <mxCell id="9Zn45o8rkPmf2H5YwDRv-70" style="edgeStyle=orthogonalEdgeStyle;rounded=0;orthogonalLoop=1;jettySize=auto;html=1;exitX=1;exitY=0.5;exitDx=0;exitDy=0;" edge="1" parent="WIyWlLk6GJQsqaUBKTNV-1" source="9Zn45o8rkPmf2H5YwDRv-59" target="9Zn45o8rkPmf2H5YwDRv-67">
          <mxGeometry relative="1" as="geometry" />
        </mxCell>
        <mxCell id="9Zn45o8rkPmf2H5YwDRv-59" value="XGBoost参数：leaming_rate=0.1" style="rounded=0;whiteSpace=wrap;html=1;fillColor=#ffe6cc;strokeColor=#d79b00;" vertex="1" parent="WIyWlLk6GJQsqaUBKTNV-1">
          <mxGeometry x="730" y="1420" width="120" height="60" as="geometry" />
        </mxCell>
        <mxCell id="9Zn45o8rkPmf2H5YwDRv-60" value="梯度提升&lt;div&gt;迭代次数：500&lt;/div&gt;" style="rounded=0;whiteSpace=wrap;html=1;fillColor=#f8cecc;strokeColor=#b85450;" vertex="1" parent="WIyWlLk6GJQsqaUBKTNV-1">
          <mxGeometry x="730" y="1640" width="120" height="60" as="geometry" />
        </mxCell>
        <mxCell id="9Zn45o8rkPmf2H5YwDRv-73" style="edgeStyle=orthogonalEdgeStyle;rounded=0;orthogonalLoop=1;jettySize=auto;html=1;curved=1;entryX=0.75;entryY=1;entryDx=0;entryDy=0;" edge="1" parent="WIyWlLk6GJQsqaUBKTNV-1" source="9Zn45o8rkPmf2H5YwDRv-66" target="9Zn45o8rkPmf2H5YwDRv-74">
          <mxGeometry relative="1" as="geometry">
            <mxPoint x="1150" y="1520" as="targetPoint" />
          </mxGeometry>
        </mxCell>
        <mxCell id="9Zn45o8rkPmf2H5YwDRv-66" value="训练集评估" style="rounded=0;whiteSpace=wrap;html=1;fillColor=#e51400;fontColor=#ffffff;strokeColor=#B20000;" vertex="1" parent="WIyWlLk6GJQsqaUBKTNV-1">
          <mxGeometry x="920" y="1530" width="120" height="60" as="geometry" />
        </mxCell>
        <mxCell id="9Zn45o8rkPmf2H5YwDRv-72" style="edgeStyle=orthogonalEdgeStyle;rounded=0;orthogonalLoop=1;jettySize=auto;html=1;curved=1;entryX=0;entryY=0.5;entryDx=0;entryDy=0;" edge="1" parent="WIyWlLk6GJQsqaUBKTNV-1" source="9Zn45o8rkPmf2H5YwDRv-67" target="9Zn45o8rkPmf2H5YwDRv-74">
          <mxGeometry relative="1" as="geometry">
            <mxPoint x="1150" y="1480" as="targetPoint" />
          </mxGeometry>
        </mxCell>
        <mxCell id="9Zn45o8rkPmf2H5YwDRv-67" value="验证集评估" style="rounded=0;whiteSpace=wrap;html=1;fillColor=#fa6800;fontColor=#000000;strokeColor=#C73500;" vertex="1" parent="WIyWlLk6GJQsqaUBKTNV-1">
          <mxGeometry x="920" y="1420" width="120" height="60" as="geometry" />
        </mxCell>
        <mxCell id="9Zn45o8rkPmf2H5YwDRv-68" style="edgeStyle=orthogonalEdgeStyle;rounded=1;orthogonalLoop=1;jettySize=auto;html=1;exitX=1;exitY=0.5;exitDx=0;exitDy=0;entryX=0.551;entryY=1.035;entryDx=0;entryDy=0;entryPerimeter=0;curved=0;" edge="1" parent="WIyWlLk6GJQsqaUBKTNV-1" source="9Zn45o8rkPmf2H5YwDRv-60" target="9Zn45o8rkPmf2H5YwDRv-66">
          <mxGeometry relative="1" as="geometry" />
        </mxCell>
        <mxCell id="9Zn45o8rkPmf2H5YwDRv-78" style="edgeStyle=orthogonalEdgeStyle;rounded=0;orthogonalLoop=1;jettySize=auto;html=1;" edge="1" parent="WIyWlLk6GJQsqaUBKTNV-1" source="9Zn45o8rkPmf2H5YwDRv-74">
          <mxGeometry relative="1" as="geometry">
            <mxPoint x="1430" y="1490" as="targetPoint" />
          </mxGeometry>
        </mxCell>
        <mxCell id="9Zn45o8rkPmf2H5YwDRv-74" value="综合指标对比" style="rounded=0;whiteSpace=wrap;html=1;fillColor=#a0522d;fontColor=#ffffff;strokeColor=#6D1F00;" vertex="1" parent="WIyWlLk6GJQsqaUBKTNV-1">
          <mxGeometry x="1150" y="1460" width="120" height="60" as="geometry" />
        </mxCell>
        <mxCell id="9Zn45o8rkPmf2H5YwDRv-82" style="edgeStyle=orthogonalEdgeStyle;rounded=0;orthogonalLoop=1;jettySize=auto;html=1;exitX=1;exitY=1;exitDx=0;exitDy=0;entryX=0.5;entryY=0;entryDx=0;entryDy=0;curved=1;" edge="1" parent="WIyWlLk6GJQsqaUBKTNV-1" source="9Zn45o8rkPmf2H5YwDRv-79" target="9Zn45o8rkPmf2H5YwDRv-92">
          <mxGeometry relative="1" as="geometry">
            <Array as="points">
              <mxPoint x="1600" y="1522" />
              <mxPoint x="1600" y="1660" />
            </Array>
          </mxGeometry>
        </mxCell>
        <mxCell id="9Zn45o8rkPmf2H5YwDRv-86" value="是" style="edgeLabel;html=1;align=center;verticalAlign=middle;resizable=0;points=[];" vertex="1" connectable="0" parent="9Zn45o8rkPmf2H5YwDRv-82">
          <mxGeometry x="0.0878" y="-2" relative="1" as="geometry">
            <mxPoint as="offset" />
          </mxGeometry>
        </mxCell>
        <mxCell id="9Zn45o8rkPmf2H5YwDRv-83" style="edgeStyle=orthogonalEdgeStyle;rounded=0;orthogonalLoop=1;jettySize=auto;html=1;entryX=0;entryY=0.5;entryDx=0;entryDy=0;curved=1;" edge="1" parent="WIyWlLk6GJQsqaUBKTNV-1" source="9Zn45o8rkPmf2H5YwDRv-79" target="9Zn45o8rkPmf2H5YwDRv-80">
          <mxGeometry relative="1" as="geometry" />
        </mxCell>
        <mxCell id="9Zn45o8rkPmf2H5YwDRv-85" value="否" style="edgeLabel;html=1;align=center;verticalAlign=middle;resizable=0;points=[];" vertex="1" connectable="0" parent="9Zn45o8rkPmf2H5YwDRv-83">
          <mxGeometry x="0.2193" y="-2" relative="1" as="geometry">
            <mxPoint as="offset" />
          </mxGeometry>
        </mxCell>
        <mxCell id="9Zn45o8rkPmf2H5YwDRv-79" value="达标判定" style="rhombus;whiteSpace=wrap;html=1;fillColor=#d0cee2;strokeColor=#56517e;" vertex="1" parent="WIyWlLk6GJQsqaUBKTNV-1">
          <mxGeometry x="1430" y="1425" width="140" height="130" as="geometry" />
        </mxCell>
        <mxCell id="9Zn45o8rkPmf2H5YwDRv-98" value="" style="edgeStyle=orthogonalEdgeStyle;rounded=0;orthogonalLoop=1;jettySize=auto;html=1;" edge="1" parent="WIyWlLk6GJQsqaUBKTNV-1" source="9Zn45o8rkPmf2H5YwDRv-80" target="9Zn45o8rkPmf2H5YwDRv-97">
          <mxGeometry relative="1" as="geometry" />
        </mxCell>
        <mxCell id="9Zn45o8rkPmf2H5YwDRv-80" value="触发调优" style="rounded=0;whiteSpace=wrap;html=1;fillColor=#e51400;strokeColor=#B20000;fontColor=#ffffff;" vertex="1" parent="WIyWlLk6GJQsqaUBKTNV-1">
          <mxGeometry x="1630" y="1380" width="120" height="60" as="geometry" />
        </mxCell>
        <mxCell id="9Zn45o8rkPmf2H5YwDRv-88" value="" style="edgeStyle=orthogonalEdgeStyle;rounded=0;orthogonalLoop=1;jettySize=auto;html=1;curved=1;" edge="1" parent="WIyWlLk6GJQsqaUBKTNV-1" source="9Zn45o8rkPmf2H5YwDRv-81" target="9Zn45o8rkPmf2H5YwDRv-87">
          <mxGeometry relative="1" as="geometry" />
        </mxCell>
        <mxCell id="9Zn45o8rkPmf2H5YwDRv-81" value="结果应用" style="rounded=1;whiteSpace=wrap;html=1;fillColor=#b0e3e6;strokeColor=#0e8088;" vertex="1" parent="WIyWlLk6GJQsqaUBKTNV-1">
          <mxGeometry x="1780" y="1690" width="120" height="60" as="geometry" />
        </mxCell>
        <mxCell id="9Zn45o8rkPmf2H5YwDRv-90" value="" style="edgeStyle=orthogonalEdgeStyle;rounded=0;orthogonalLoop=1;jettySize=auto;html=1;" edge="1" parent="WIyWlLk6GJQsqaUBKTNV-1" source="9Zn45o8rkPmf2H5YwDRv-87" target="9Zn45o8rkPmf2H5YwDRv-89">
          <mxGeometry relative="1" as="geometry" />
        </mxCell>
        <mxCell id="9Zn45o8rkPmf2H5YwDRv-87" value="输出报告" style="rounded=1;whiteSpace=wrap;html=1;fillColor=#d0cee2;strokeColor=#56517e;" vertex="1" parent="WIyWlLk6GJQsqaUBKTNV-1">
          <mxGeometry x="1940" y="1660" width="120" height="60" as="geometry" />
        </mxCell>
        <mxCell id="9Zn45o8rkPmf2H5YwDRv-89" value="结束" style="rounded=1;whiteSpace=wrap;html=1;fillColor=#bac8d3;strokeColor=#23445d;" vertex="1" parent="WIyWlLk6GJQsqaUBKTNV-1">
          <mxGeometry x="2140" y="1660" width="120" height="60" as="geometry" />
        </mxCell>
        <mxCell id="9Zn45o8rkPmf2H5YwDRv-92" value="XGBoost/梯度提升+&lt;div&gt;标准：F1&amp;gt;0.85且AUC&amp;gt;0.9&lt;/div&gt;&lt;div&gt;模型优秀&lt;/div&gt;" style="rounded=0;whiteSpace=wrap;html=1;fillColor=#76608a;strokeColor=#432D57;fontColor=#ffffff;" vertex="1" parent="WIyWlLk6GJQsqaUBKTNV-1">
          <mxGeometry x="1590" y="1694" width="130" height="106" as="geometry" />
        </mxCell>
        <mxCell id="9Zn45o8rkPmf2H5YwDRv-95" style="edgeStyle=orthogonalEdgeStyle;rounded=0;orthogonalLoop=1;jettySize=auto;html=1;entryX=0.003;entryY=0.61;entryDx=0;entryDy=0;entryPerimeter=0;curved=1;" edge="1" parent="WIyWlLk6GJQsqaUBKTNV-1" source="9Zn45o8rkPmf2H5YwDRv-92" target="9Zn45o8rkPmf2H5YwDRv-81">
          <mxGeometry relative="1" as="geometry" />
        </mxCell>
        <mxCell id="9Zn45o8rkPmf2H5YwDRv-101" style="edgeStyle=orthogonalEdgeStyle;rounded=0;orthogonalLoop=1;jettySize=auto;html=1;entryX=0;entryY=0.5;entryDx=0;entryDy=0;curved=1;" edge="1" parent="WIyWlLk6GJQsqaUBKTNV-1" source="9Zn45o8rkPmf2H5YwDRv-97" target="9Zn45o8rkPmf2H5YwDRv-99">
          <mxGeometry relative="1" as="geometry" />
        </mxCell>
        <mxCell id="9Zn45o8rkPmf2H5YwDRv-102" style="edgeStyle=orthogonalEdgeStyle;rounded=0;orthogonalLoop=1;jettySize=auto;html=1;entryX=0;entryY=0.75;entryDx=0;entryDy=0;curved=1;" edge="1" parent="WIyWlLk6GJQsqaUBKTNV-1" source="9Zn45o8rkPmf2H5YwDRv-97" target="9Zn45o8rkPmf2H5YwDRv-100">
          <mxGeometry relative="1" as="geometry" />
        </mxCell>
        <mxCell id="9Zn45o8rkPmf2H5YwDRv-97" value="参数优化" style="rounded=0;whiteSpace=wrap;html=1;fillColor=#647687;strokeColor=#314354;fontColor=#ffffff;" vertex="1" parent="WIyWlLk6GJQsqaUBKTNV-1">
          <mxGeometry x="1830" y="1380" width="120" height="60" as="geometry" />
        </mxCell>
        <mxCell id="9Zn45o8rkPmf2H5YwDRv-104" style="edgeStyle=orthogonalEdgeStyle;rounded=0;orthogonalLoop=1;jettySize=auto;html=1;exitX=1;exitY=0.5;exitDx=0;exitDy=0;entryX=0;entryY=0.5;entryDx=0;entryDy=0;" edge="1" parent="WIyWlLk6GJQsqaUBKTNV-1" source="9Zn45o8rkPmf2H5YwDRv-99" target="9Zn45o8rkPmf2H5YwDRv-103">
          <mxGeometry relative="1" as="geometry" />
        </mxCell>
        <mxCell id="9Zn45o8rkPmf2H5YwDRv-99" value="网格搜索" style="rounded=0;whiteSpace=wrap;html=1;fillColor=#ffcd28;gradientColor=#ffa500;strokeColor=#d79b00;" vertex="1" parent="WIyWlLk6GJQsqaUBKTNV-1">
          <mxGeometry x="2008" y="1290" width="120" height="60" as="geometry" />
        </mxCell>
        <mxCell id="9Zn45o8rkPmf2H5YwDRv-100" value="遗传算法" style="rounded=0;whiteSpace=wrap;html=1;fillColor=#fff2cc;gradientColor=#ffd966;strokeColor=#d6b656;" vertex="1" parent="WIyWlLk6GJQsqaUBKTNV-1">
          <mxGeometry x="2008" y="1470" width="120" height="60" as="geometry" />
        </mxCell>
        <mxCell id="9Zn45o8rkPmf2H5YwDRv-106" style="edgeStyle=orthogonalEdgeStyle;rounded=0;orthogonalLoop=1;jettySize=auto;html=1;exitX=0.5;exitY=0;exitDx=0;exitDy=0;entryX=0.75;entryY=0;entryDx=0;entryDy=0;curved=1;" edge="1" parent="WIyWlLk6GJQsqaUBKTNV-1" source="9Zn45o8rkPmf2H5YwDRv-103" target="9Zn45o8rkPmf2H5YwDRv-50">
          <mxGeometry relative="1" as="geometry" />
        </mxCell>
        <mxCell id="9Zn45o8rkPmf2H5YwDRv-103" value="重新训练" style="rounded=0;whiteSpace=wrap;html=1;fillColor=#d5e8d4;gradientColor=#97d077;strokeColor=#82b366;" vertex="1" parent="WIyWlLk6GJQsqaUBKTNV-1">
          <mxGeometry x="2180" y="1360" width="120" height="60" as="geometry" />
        </mxCell>
        <mxCell id="9Zn45o8rkPmf2H5YwDRv-105" style="edgeStyle=orthogonalEdgeStyle;rounded=0;orthogonalLoop=1;jettySize=auto;html=1;entryX=0.452;entryY=0.999;entryDx=0;entryDy=0;entryPerimeter=0;" edge="1" parent="WIyWlLk6GJQsqaUBKTNV-1" source="9Zn45o8rkPmf2H5YwDRv-100" target="9Zn45o8rkPmf2H5YwDRv-103">
          <mxGeometry relative="1" as="geometry" />
        </mxCell>
        <mxCell id="9Zn45o8rkPmf2H5YwDRv-118" style="edgeStyle=orthogonalEdgeStyle;rounded=0;orthogonalLoop=1;jettySize=auto;html=1;" edge="1" parent="WIyWlLk6GJQsqaUBKTNV-1" source="9Zn45o8rkPmf2H5YwDRv-109" target="9Zn45o8rkPmf2H5YwDRv-117">
          <mxGeometry relative="1" as="geometry" />
        </mxCell>
        <mxCell id="9Zn45o8rkPmf2H5YwDRv-109" value="&lt;ul style=&quot;box-sizing: border-box; position: relative; color: rgb(51, 51, 51); font-family: &amp;quot;JetBrains Mono&amp;quot;, &amp;quot;Fira Code&amp;quot;, &amp;quot;Cascadia Code&amp;quot;, Menlo, &amp;quot;Ubuntu Mono&amp;quot;, Consolas, HYZhengYuan; font-size: 16px; text-align: justify;&quot; data-mark=&quot;-&quot; class=&quot;ul-list&quot;&gt;&lt;li style=&quot;box-sizing: border-box; margin: 0px; position: relative; color: var(--task-list-item-color);&quot; class=&quot;md-list-item md-focus-container&quot;&gt;&lt;p style=&quot;box-sizing: border-box; line-height: 1.75rem; orphans: 4; margin: 0px 0px 0.5rem; color: rgb(17, 17, 17); font-size: 1rem; white-space-collapse: preserve; position: relative;&quot; class=&quot;md-end-block md-p md-focus&quot;&gt;&lt;span style=&quot;box-sizing: border-box;&quot; class=&quot;md-plain md-expand&quot;&gt;直方图：统计各车辆类型数量分布的频次&lt;/span&gt;&lt;/p&gt;&lt;/li&gt;&lt;/ul&gt;" style="rounded=0;whiteSpace=wrap;html=1;fillColor=#b1ddf0;strokeColor=#10739e;" vertex="1" parent="WIyWlLk6GJQsqaUBKTNV-1">
          <mxGeometry x="1260" y="60" width="260" height="120" as="geometry" />
        </mxCell>
        <mxCell id="9Zn45o8rkPmf2H5YwDRv-114" style="edgeStyle=orthogonalEdgeStyle;rounded=0;orthogonalLoop=1;jettySize=auto;html=1;exitX=1;exitY=0;exitDx=0;exitDy=0;entryX=-0.001;entryY=0.405;entryDx=0;entryDy=0;curved=1;entryPerimeter=0;" edge="1" parent="WIyWlLk6GJQsqaUBKTNV-1" target="9Zn45o8rkPmf2H5YwDRv-109">
          <mxGeometry relative="1" as="geometry">
            <mxPoint x="1050" y="240.0000000000001" as="sourcePoint" />
            <mxPoint x="1200" y="120" as="targetPoint" />
          </mxGeometry>
        </mxCell>
        <mxCell id="9Zn45o8rkPmf2H5YwDRv-115" style="edgeStyle=orthogonalEdgeStyle;rounded=0;orthogonalLoop=1;jettySize=auto;html=1;exitX=1;exitY=0.5;exitDx=0;exitDy=0;curved=1;" edge="1" parent="WIyWlLk6GJQsqaUBKTNV-1" source="9Zn45o8rkPmf2H5YwDRv-110" target="9Zn45o8rkPmf2H5YwDRv-111">
          <mxGeometry relative="1" as="geometry" />
        </mxCell>
        <mxCell id="9Zn45o8rkPmf2H5YwDRv-116" style="edgeStyle=orthogonalEdgeStyle;rounded=0;orthogonalLoop=1;jettySize=auto;html=1;exitX=1;exitY=1;exitDx=0;exitDy=0;curved=1;entryX=-0.001;entryY=0.653;entryDx=0;entryDy=0;entryPerimeter=0;" edge="1" parent="WIyWlLk6GJQsqaUBKTNV-1" target="9Zn45o8rkPmf2H5YwDRv-112">
          <mxGeometry relative="1" as="geometry">
            <mxPoint x="1090" y="309.9600000000001" as="sourcePoint" />
            <mxPoint x="1240" y="569.96" as="targetPoint" />
            <Array as="points">
              <mxPoint x="1090" y="550" />
              <mxPoint x="1260" y="550" />
            </Array>
          </mxGeometry>
        </mxCell>
        <mxCell id="9Zn45o8rkPmf2H5YwDRv-110" value="图表绘制" style="rounded=1;whiteSpace=wrap;html=1;fillColor=#b0e3e6;strokeColor=#0e8088;" vertex="1" parent="WIyWlLk6GJQsqaUBKTNV-1">
          <mxGeometry x="980" y="240" width="130" height="70" as="geometry" />
        </mxCell>
        <mxCell id="9Zn45o8rkPmf2H5YwDRv-119" style="edgeStyle=orthogonalEdgeStyle;rounded=0;orthogonalLoop=1;jettySize=auto;html=1;" edge="1" parent="WIyWlLk6GJQsqaUBKTNV-1" source="9Zn45o8rkPmf2H5YwDRv-111" target="9Zn45o8rkPmf2H5YwDRv-117">
          <mxGeometry relative="1" as="geometry" />
        </mxCell>
        <mxCell id="9Zn45o8rkPmf2H5YwDRv-111" value="&lt;ul style=&quot;box-sizing: border-box; position: relative; color: rgb(51, 51, 51); font-family: &amp;quot;JetBrains Mono&amp;quot;, &amp;quot;Fira Code&amp;quot;, &amp;quot;Cascadia Code&amp;quot;, Menlo, &amp;quot;Ubuntu Mono&amp;quot;, Consolas, HYZhengYuan; font-size: 16px; text-align: justify;&quot; data-mark=&quot;-&quot; class=&quot;ul-list&quot;&gt;&lt;li style=&quot;box-sizing: border-box; margin: 0px; position: relative; color: var(--task-list-item-color);&quot; class=&quot;md-list-item md-focus-container&quot;&gt;&lt;p style=&quot;box-sizing: border-box; line-height: 1.75rem; orphans: 4; margin: 0px 0px 0.5rem; color: rgb(17, 17, 17); font-size: 1rem; white-space-collapse: preserve; position: relative;&quot; class=&quot;md-end-block md-p md-focus&quot;&gt;&lt;span style=&quot;box-sizing: border-box;&quot; class=&quot;md-plain md-expand&quot;&gt;饼图：计算各类交通状况的占比&lt;/span&gt;&lt;/p&gt;&lt;/li&gt;&lt;/ul&gt;" style="rounded=0;whiteSpace=wrap;html=1;fillColor=#fad7ac;strokeColor=#b46504;" vertex="1" parent="WIyWlLk6GJQsqaUBKTNV-1">
          <mxGeometry x="1260" y="250" width="260" height="140" as="geometry" />
        </mxCell>
        <mxCell id="9Zn45o8rkPmf2H5YwDRv-112" value="&lt;ul style=&quot;box-sizing: border-box; position: relative; color: rgb(51, 51, 51); font-family: &amp;quot;JetBrains Mono&amp;quot;, &amp;quot;Fira Code&amp;quot;, &amp;quot;Cascadia Code&amp;quot;, Menlo, &amp;quot;Ubuntu Mono&amp;quot;, Consolas, HYZhengYuan; font-size: 16px; text-align: justify;&quot; data-mark=&quot;-&quot; class=&quot;ul-list&quot;&gt;&lt;li style=&quot;box-sizing: border-box; margin: 0px; position: relative; color: var(--task-list-item-color);&quot; class=&quot;md-list-item md-focus-container&quot;&gt;&lt;p style=&quot;box-sizing: border-box; line-height: 1.75rem; orphans: 4; margin: 0px 0px 0.5rem; color: rgb(17, 17, 17); font-size: 1rem; white-space-collapse: preserve; position: relative;&quot; class=&quot;md-end-block md-p md-focus&quot;&gt;&lt;span style=&quot;box-sizing: border-box;&quot; class=&quot;md-plain md-expand&quot;&gt;箱线图：展示工作日车流量的四分位分布&lt;/span&gt;&lt;/p&gt;&lt;/li&gt;&lt;/ul&gt;" style="rounded=0;whiteSpace=wrap;html=1;fillColor=#fad9d5;strokeColor=#ae4132;" vertex="1" parent="WIyWlLk6GJQsqaUBKTNV-1">
          <mxGeometry x="1260" y="450" width="260" height="120" as="geometry" />
        </mxCell>
        <mxCell id="9Zn45o8rkPmf2H5YwDRv-121" style="edgeStyle=orthogonalEdgeStyle;rounded=0;orthogonalLoop=1;jettySize=auto;html=1;curved=1;exitX=0.878;exitY=0.008;exitDx=0;exitDy=0;exitPerimeter=0;entryX=0.692;entryY=0.213;entryDx=0;entryDy=0;entryPerimeter=0;" edge="1" parent="WIyWlLk6GJQsqaUBKTNV-1" source="9Zn45o8rkPmf2H5YwDRv-117" target="9Zn45o8rkPmf2H5YwDRv-19">
          <mxGeometry relative="1" as="geometry">
            <Array as="points">
              <mxPoint x="1810" y="199" />
              <mxPoint x="1810" y="-170" />
              <mxPoint x="385" y="-170" />
              <mxPoint x="385" y="376" />
            </Array>
          </mxGeometry>
        </mxCell>
        <mxCell id="9Zn45o8rkPmf2H5YwDRv-117" value="&lt;span style=&quot;color: rgb(17, 17, 17); font-family: &amp;quot;JetBrains Mono&amp;quot;, &amp;quot;Fira Code&amp;quot;, &amp;quot;Cascadia Code&amp;quot;, Menlo, &amp;quot;Ubuntu Mono&amp;quot;, Consolas, HYZhengYuan; font-size: 16px; orphans: 4; text-align: justify; white-space-collapse: preserve;&quot;&gt;初步观察数据规模（行数/列数）和分布特征&lt;/span&gt;" style="rounded=0;whiteSpace=wrap;html=1;fillColor=#bac8d3;strokeColor=#23445d;" vertex="1" parent="WIyWlLk6GJQsqaUBKTNV-1">
          <mxGeometry x="1700" y="197.5" width="220" height="155" as="geometry" />
        </mxCell>
        <mxCell id="9Zn45o8rkPmf2H5YwDRv-120" style="edgeStyle=orthogonalEdgeStyle;rounded=0;orthogonalLoop=1;jettySize=auto;html=1;entryX=0.608;entryY=0.997;entryDx=0;entryDy=0;entryPerimeter=0;" edge="1" parent="WIyWlLk6GJQsqaUBKTNV-1" source="9Zn45o8rkPmf2H5YwDRv-112" target="9Zn45o8rkPmf2H5YwDRv-117">
          <mxGeometry relative="1" as="geometry" />
        </mxCell>
      </root>
    </mxGraphModel>
  </diagram>
</mxfile>
